<svg width="413" height="51" viewBox="0 0 413 51" fill="none" xmlns="http://www.w3.org/2000/svg">
<path fill-rule="evenodd" clip-rule="evenodd" d="M0 25.0651C8.58534 40.7088 23.1568 50.9999 39.688 50.9999C41.2699 50.9999 42.8338 50.9056 44.3763 50.7215C44.7865 47.6312 44.9998 44.4598 44.9998 41.2273C44.9998 28.0065 41.4324 15.8077 35.4137 6L30.3631 25.0651H0Z" fill="#3A5AFF"/>
<path d="M68.2744 47.998C68.0465 49.3164 67.3792 49.9837 66.2725 50C65.8981 50 65.5563 49.8942 65.2471 49.6826C64.6123 49.2594 64.2949 48.5758 64.2949 47.6318L68.7139 14.0137C68.7464 13.7533 68.8197 13.4928 68.9336 13.2324C69.2917 12.4837 69.8695 12.1094 70.667 12.1094C70.9762 12.1094 71.2773 12.1908 71.5703 12.3535C72.2214 12.7116 72.5713 13.265 72.6201 14.0137L71.0088 27.124C79.0329 18.1396 83.2484 13.4766 83.6553 13.1348C84.2249 12.5651 84.7783 12.2803 85.3154 12.2803C85.6735 12.2803 86.0072 12.3779 86.3164 12.5732C86.9349 12.9476 87.2441 13.4847 87.2441 14.1846C87.2441 14.6729 87.0651 15.1855 86.707 15.7227C86.2676 16.2923 81.2383 21.8669 71.6191 32.4463C72.6771 33.3903 73.8652 34.4645 75.1836 35.6689C82.0195 41.8376 85.9095 45.3939 86.8535 46.3379C87.4557 46.9564 87.765 47.526 87.7812 48.0469C87.7812 48.4212 87.6673 48.7712 87.4395 49.0967C87.0488 49.6989 86.528 50 85.877 50C85.3073 50 84.7783 49.821 84.29 49.4629C83.7367 49.0723 78.9189 44.6859 69.8369 36.3037C69.0719 42.391 68.5511 46.2891 68.2744 47.998ZM119.617 46.0693C119.194 44.7835 118.982 43.1234 118.982 41.0889C118.982 39.5426 119.137 37.6953 119.446 35.5469C118.893 35.8236 118.283 36.027 117.615 36.1572C117.42 37.1501 117.168 38.1592 116.858 39.1846C115.752 42.9281 114.384 45.7764 112.757 47.7295C112.48 48.055 112.146 48.3724 111.756 48.6816C110.372 49.7559 108.916 50.293 107.386 50.293C105.368 50.2767 103.927 49.3571 103.064 47.5342C101.632 49.3083 99.6628 50.2035 97.1562 50.2197C96.5866 50.2197 96.0495 50.1465 95.5449 50C92.6803 49.1536 91.248 46.0124 91.248 40.5762C91.248 40.4785 91.248 40.3727 91.248 40.2588C91.2806 37.6221 91.5654 35.1156 92.1025 32.7393C92.5745 30.6722 93.3721 29.6305 94.4951 29.6143C95.5531 29.6305 96.0983 30.2734 96.1309 31.543C96.1309 31.7871 96.0576 32.3405 95.9111 33.2031C95.3415 36.8978 95.0566 39.5589 95.0566 41.1865C95.0566 44.5719 95.9111 46.2809 97.6201 46.3135C99.915 46.1507 101.469 43.1478 102.283 37.3047C102.495 35.7259 102.649 33.9518 102.747 31.9824C102.763 31.8197 102.771 31.722 102.771 31.6895C102.902 30.4036 103.528 29.7526 104.651 29.7363C104.765 29.7363 104.879 29.7445 104.993 29.7607C105.807 29.9235 106.214 30.5745 106.214 31.7139C105.807 35.9131 105.604 39.502 105.604 42.4805C105.604 42.9036 105.636 43.335 105.701 43.7744C105.962 45.7113 106.67 46.6797 107.825 46.6797C109.111 46.6797 110.307 45.7031 111.414 43.75C112.277 42.2363 113.237 39.6729 114.295 36.0596C113.774 35.9131 113.286 35.7178 112.83 35.4736C111.137 34.5133 110.291 32.9915 110.291 30.9082C110.291 30.2246 110.462 29.5736 110.804 28.9551C111.52 27.7181 112.659 27.0996 114.222 27.0996C115.019 27.0996 115.776 27.3112 116.492 27.7344C117.664 28.4505 118.25 29.4515 118.25 30.7373C118.25 31.2581 118.209 31.9255 118.128 32.7393C118.763 32.4137 119.617 31.8604 120.691 31.0791C121.001 30.8675 121.367 30.7536 121.79 30.7373C122.441 30.7536 123.003 30.9652 123.475 31.3721C123.735 31.5837 123.873 31.8034 123.89 32.0312C123.89 32.2103 123.833 32.4707 123.719 32.8125C122.872 35.6771 122.449 38.1429 122.449 40.21C122.449 41.512 122.588 42.7572 122.864 43.9453C122.864 43.9779 122.872 44.0186 122.889 44.0674C123.263 45.4183 123.947 46.0938 124.939 46.0938C125.428 46.0449 126.242 45.6868 127.381 45.0195C128.39 44.3522 129.139 44.0186 129.627 44.0186C129.871 44.0186 130.115 44.1081 130.359 44.2871C130.783 44.5964 130.994 44.9626 130.994 45.3857C130.929 46.2972 130.286 47.2331 129.065 48.1934C127.617 49.235 126.071 49.7559 124.427 49.7559C124.052 49.7559 123.678 49.7152 123.304 49.6338C121.562 49.2432 120.333 48.055 119.617 46.0693ZM113.221 31.0791C113.237 31.9906 113.807 32.6416 114.93 33.0322C115.092 32.1696 115.174 31.5186 115.174 31.0791C115.174 30.9814 115.158 30.8757 115.125 30.7617C115.011 30.3223 114.71 30.1025 114.222 30.1025C114.14 30.1025 114.043 30.1188 113.929 30.1514C113.457 30.2816 113.221 30.5908 113.221 31.0791ZM130.872 22.9736C130.888 22.9736 130.97 22.9736 131.116 22.9736C132.028 23.0062 132.85 23.0225 133.582 23.0225L134.656 15.4785C134.721 14.974 134.803 14.5508 134.9 14.209C135.193 13.1348 135.787 12.5977 136.683 12.5977C136.862 12.5977 137.041 12.6139 137.22 12.6465C137.968 12.8255 138.343 13.5335 138.343 14.7705C138.343 15.1611 138.017 17.9118 137.366 23.0225H139.93C140.369 23.0225 140.752 23.112 141.077 23.291C141.647 23.6328 141.932 24.1374 141.932 24.8047C141.932 25.0977 141.858 25.3743 141.712 25.6348C141.338 26.2533 140.727 26.5625 139.881 26.5625H136.854C135.584 36.3281 134.949 41.805 134.949 42.9932C134.949 43.7419 135.104 44.4417 135.413 45.0928C135.869 46.0693 136.471 46.5576 137.22 46.5576C137.399 46.5576 137.586 46.5332 137.781 46.4844C138.221 46.3704 138.847 45.9961 139.661 45.3613C140.459 44.7266 141.126 44.4092 141.663 44.4092C141.891 44.4092 142.111 44.458 142.322 44.5557C142.908 44.8486 143.201 45.2962 143.201 45.8984C143.152 46.7448 142.526 47.6237 141.321 48.5352C139.856 49.5931 138.302 50.1221 136.658 50.1221C135.047 50.1058 133.729 49.4303 132.703 48.0957C131.661 46.6797 131.141 44.8975 131.141 42.749C131.141 42.277 131.784 36.8815 133.069 26.5625H130.872C130.774 26.5625 130.677 26.5625 130.579 26.5625C129.456 26.4648 128.895 25.8789 128.895 24.8047C128.895 24.5117 128.943 24.2432 129.041 23.999C129.334 23.3154 129.944 22.9736 130.872 22.9736ZM153.089 30.835C153.382 29.9886 153.984 29.5573 154.896 29.541H155.042C155.4 29.5573 155.758 29.598 156.116 29.6631C158.753 30.1025 160.901 31.4941 162.562 33.8379C164.124 36.0352 164.905 38.5254 164.905 41.3086C164.905 43.9616 164.157 46.2891 162.659 48.291C162.627 48.3236 162.594 48.3724 162.562 48.4375C161.943 49.2025 161.268 49.585 160.535 49.585C160.275 49.585 160.014 49.4954 159.754 49.3164C159.249 48.9421 158.997 48.4375 158.997 47.8027C158.997 47.5911 159.038 47.3714 159.119 47.1436C159.119 47.1436 159.209 46.9727 159.388 46.6309C160.576 44.7103 161.178 42.8141 161.194 40.9424C161.194 40.7308 161.186 40.5111 161.17 40.2832C161.007 38.1999 160.193 36.4176 158.729 34.9365C157.768 33.96 156.897 33.4635 156.116 33.4473C155.953 34.082 155.66 35.2458 155.237 36.9385C154.342 40.6657 153.455 43.514 152.576 45.4834C151.225 48.5107 148.955 50.0407 145.765 50.0732C144.397 50.0732 143.266 49.6012 142.371 48.6572C140.988 47.1924 140.296 44.8568 140.296 41.6504C140.296 40.5762 140.507 38.4684 140.931 35.3271C141.142 33.7972 141.289 32.6823 141.37 31.9824C141.386 31.8034 141.411 31.6243 141.443 31.4453C141.704 29.8991 142.363 29.126 143.421 29.126C143.632 29.126 143.836 29.1504 144.031 29.1992C144.731 29.3945 145.081 30.0863 145.081 31.2744C145.081 31.7464 145 32.7637 144.837 34.3262C144.332 38.9486 144.08 41.8213 144.08 42.9443C144.08 43.7093 144.235 44.4173 144.544 45.0684C145 46.0286 145.602 46.5088 146.351 46.5088C147.376 46.4925 148.304 45.752 149.134 44.2871C149.801 43.0827 150.542 40.9017 151.355 37.7441C151.388 37.5977 151.966 35.2946 153.089 30.835ZM142.298 24.9023C142.298 24.6094 142.371 24.3245 142.518 24.0479C142.843 23.4131 143.364 23.0957 144.08 23.0957C144.373 23.0957 144.658 23.1689 144.935 23.3154C145.553 23.6572 145.862 24.1862 145.862 24.9023C145.862 25.1953 145.789 25.4801 145.643 25.7568C145.317 26.3753 144.796 26.6846 144.08 26.6846C143.771 26.6846 143.486 26.6113 143.226 26.4648C142.607 26.123 142.298 25.6022 142.298 24.9023ZM206.434 20.8252C206.076 19.9463 205.636 19.1488 205.115 18.4326C203.846 16.7562 202.446 15.918 200.916 15.918C199.923 15.918 198.922 16.2842 197.913 17.0166C195.993 18.3838 194.34 20.7601 192.957 24.1455C191.508 27.6286 190.784 31.0465 190.784 34.3994C190.784 37.6221 191.305 40.3076 192.347 42.4561C193.502 44.8324 195.081 46.0205 197.083 46.0205C198.011 46.0205 199.044 45.5973 200.184 44.751C201.974 43.4001 203.512 41.4388 204.798 38.8672C204.83 38.7695 204.879 38.6719 204.944 38.5742C205.319 37.9395 205.864 37.6221 206.58 37.6221C206.922 37.6221 207.247 37.7035 207.557 37.8662C208.208 38.2406 208.533 38.8102 208.533 39.5752C208.533 39.8519 208.452 40.1693 208.289 40.5273C207.247 42.7409 205.994 44.6208 204.529 46.167C202.088 48.7223 199.467 50 196.668 50C196.31 50 195.952 49.9756 195.594 49.9268C193.087 49.5687 191.012 48.0794 189.368 45.459C187.545 42.5456 186.634 38.8997 186.634 34.5215C186.634 31.9173 187.008 29.2806 187.757 26.6113C188.929 22.4121 190.735 18.929 193.177 16.1621C195.732 13.2975 198.434 11.8652 201.282 11.8652C202.503 11.8652 203.667 12.1338 204.773 12.6709C207.117 13.8428 208.875 16.0482 210.047 19.2871C210.177 19.5964 210.242 19.8975 210.242 20.1904C210.242 20.5322 210.153 20.8577 209.974 21.167C209.583 21.818 209.021 22.1436 208.289 22.1436C207.54 22.0947 206.922 21.6553 206.434 20.8252ZM224.939 50C221.017 49.8372 218.112 47.4447 216.224 42.8223C214.824 39.3392 214.124 35.0749 214.124 30.0293C214.124 29.7689 214.14 29.4352 214.173 29.0283C214.401 25.5941 215.035 22.4447 216.077 19.5801C217.77 14.9577 220.162 12.6465 223.255 12.6465C223.418 12.6465 223.589 12.6546 223.768 12.6709C226.583 12.8499 227.991 14.4857 227.991 17.5781C227.991 20.9473 226.543 24.6908 223.646 28.8086C221.806 31.429 219.878 33.5531 217.859 35.1807C218.413 38.2731 219.023 40.5924 219.69 42.1387C220.927 45.0033 222.767 46.4355 225.208 46.4355C225.371 46.4355 225.542 46.4193 225.721 46.3867C226.258 46.2891 227.007 45.8984 227.967 45.2148C228.895 44.5801 229.619 44.2627 230.14 44.2627C230.368 44.2627 230.587 44.3359 230.799 44.4824C231.271 44.8079 231.507 45.2474 231.507 45.8008C231.474 46.6471 230.872 47.5179 229.7 48.4131C228.235 49.471 226.648 50 224.939 50ZM223.279 16.333C222.319 16.3493 221.473 16.7643 220.74 17.5781C218.885 19.6777 217.868 24.0641 217.688 30.7373C218.665 29.7445 219.642 28.5726 220.618 27.2217C223.32 23.527 224.671 20.4102 224.671 17.8711C224.671 17.7409 224.638 17.5863 224.573 17.4072C224.313 16.6911 223.882 16.333 223.279 16.333ZM249.28 38.4277C249.28 38.4277 249.931 35.8398 251.233 30.6641C251.575 29.8177 252.177 29.3864 253.04 29.3701C253.366 29.3864 253.691 29.4189 254.017 29.4678C256.751 29.9072 258.973 31.2988 260.682 33.6426C262.277 35.8398 263.074 38.3464 263.074 41.1621C263.042 42.9036 262.635 44.6777 261.854 46.4844C260.958 48.4538 259.909 49.4385 258.704 49.4385C258.379 49.4385 258.069 49.3001 257.776 49.0234C257.353 48.6165 257.142 48.1689 257.142 47.6807C257.142 47.4691 257.182 47.2493 257.264 47.0215C257.264 47.0215 257.361 46.8424 257.557 46.4844C258.729 44.6126 259.323 42.7165 259.339 40.7959C259.339 40.568 259.331 40.3402 259.314 40.1123C259.152 38.0127 258.33 36.2305 256.849 34.7656C255.905 33.7891 255.042 33.2926 254.261 33.2764C254.098 33.8949 253.829 35.0179 253.455 36.6455C252.625 40.2913 251.827 42.9443 251.062 44.6045C249.386 48.1689 246.953 49.9512 243.763 49.9512C241.712 49.9349 240.215 48.9014 239.271 46.8506C239.059 47.0947 238.815 47.347 238.538 47.6074C236.894 49.1699 235.234 49.9512 233.558 49.9512C232.516 49.9512 231.621 49.6826 230.872 49.1455C229.196 47.9574 228.357 45.6299 228.357 42.1631C228.357 41.6097 228.39 41.0238 228.455 40.4053C228.797 37.6221 229.676 35.1481 231.092 32.9834C232.833 30.3304 234.917 29.0039 237.342 29.0039C238.4 29.0039 239.319 29.2074 240.101 29.6143C240.426 29.2236 240.857 29.0202 241.395 29.0039C241.606 29.0039 241.81 29.0283 242.005 29.0771C242.705 29.2725 243.055 29.9642 243.055 31.1523C243.055 31.6243 242.973 32.6416 242.811 34.2041C242.306 38.8265 242.054 41.6992 242.054 42.8223C242.054 43.4408 242.16 44.0348 242.371 44.6045C242.778 45.7601 243.421 46.3379 244.3 46.3379C245.358 46.3216 246.294 45.6868 247.107 44.4336C247.791 43.3268 248.515 41.3249 249.28 38.4277ZM237.049 43.8232C237.163 43.6442 237.301 43.2943 237.464 42.7734C238.131 40.5599 238.742 37.1338 239.295 32.4951C238.888 32.2998 238.514 32.2021 238.172 32.2021C237.863 32.2021 237.553 32.2428 237.244 32.3242C235.747 32.7799 234.477 34.196 233.436 36.5723C232.492 38.7044 232.02 40.8285 232.02 42.9443C232.02 43.2536 232.036 43.5465 232.068 43.8232C232.215 45.402 232.711 46.1914 233.558 46.1914C234.013 46.1914 234.567 45.9635 235.218 45.5078C235.983 44.9707 236.593 44.4092 237.049 43.8232ZM266.712 35.9619C266.728 35.9294 266.761 35.8561 266.81 35.7422C268.291 32.3893 269.031 30.6966 269.031 30.6641C269.031 30.6478 269.039 30.6315 269.056 30.6152C269.381 29.7852 270 29.3701 270.911 29.3701C271.237 29.3864 271.57 29.4189 271.912 29.4678C274.646 29.891 276.868 31.2826 278.577 33.6426C280.156 35.8398 280.945 38.3464 280.945 41.1621C280.945 42.6432 280.652 44.1976 280.066 45.8252C279.22 48.2178 278.064 49.4141 276.6 49.4141C276.339 49.4141 276.071 49.3245 275.794 49.1455C275.273 48.7549 275.013 48.2503 275.013 47.6318C275.013 47.4202 275.062 47.2005 275.159 46.9727C275.159 46.9727 275.249 46.8099 275.428 46.4844C276.6 44.5801 277.194 42.6839 277.21 40.7959C277.21 40.5843 277.202 40.3646 277.186 40.1367C277.023 38.0371 276.209 36.2467 274.744 34.7656C273.784 33.7891 272.921 33.2926 272.156 33.2764C271.88 33.7972 271.285 34.9609 270.374 36.7676C270.374 36.7676 270.366 36.7839 270.35 36.8164C270.333 36.849 270.317 36.8734 270.301 36.8896C269.601 38.2406 268.86 38.916 268.079 38.916C267.851 38.916 267.615 38.8672 267.371 38.7695C266.72 38.4766 266.395 37.9883 266.395 37.3047C266.395 37.0443 266.476 36.6781 266.639 36.2061C266.671 36.0921 266.696 36.0107 266.712 35.9619ZM296.277 44.0674C296.277 44.0837 296.285 44.0999 296.302 44.1162C296.823 45.6299 297.514 46.3867 298.377 46.3867C298.882 46.3542 299.695 45.9961 300.818 45.3125C301.827 44.6452 302.584 44.3115 303.089 44.3115C303.333 44.3115 303.577 44.3929 303.821 44.5557C304.244 44.8812 304.456 45.2555 304.456 45.6787C304.391 46.5739 303.748 47.5016 302.527 48.4619C301.062 49.5199 299.516 50.0488 297.889 50.0488C296.814 50.0488 295.887 49.7721 295.105 49.2188C293.283 47.9167 292.371 45.2718 292.371 41.2842C292.371 40.5029 292.404 39.681 292.469 38.8184C292.599 37.1582 292.729 36.141 292.859 35.7666C291.785 36.32 290.67 36.5967 289.515 36.5967C289.384 36.5967 289.189 36.5804 288.929 36.5479C288.799 36.5316 288.701 36.5234 288.636 36.5234C288.587 36.556 288.4 36.6618 288.074 36.8408C286.984 37.4756 286.105 37.793 285.438 37.793C285.242 37.793 285.039 37.7441 284.827 37.6465C284.323 37.3861 284.07 37.0117 284.07 36.5234C284.07 36.4421 284.078 36.3607 284.095 36.2793C284.144 35.9538 284.396 35.612 284.852 35.2539C285.031 35.1237 285.161 35.0179 285.242 34.9365C284.233 34.0088 283.72 32.7393 283.704 31.1279C283.704 30.4281 283.875 29.777 284.217 29.1748C284.933 27.9215 286.072 27.2949 287.635 27.2949C288.432 27.2949 289.189 27.5065 289.905 27.9297C291.077 28.6621 291.663 29.6712 291.663 30.957C291.663 31.722 291.549 32.4137 291.321 33.0322C291.565 32.9183 291.989 32.6497 292.591 32.2266C293.828 31.3802 294.699 30.957 295.203 30.957C295.87 30.9733 296.432 31.1768 296.888 31.5674C297.132 31.779 297.262 32.015 297.278 32.2754C297.278 32.373 297.254 32.5195 297.205 32.7148C297.156 32.8613 297.132 32.9671 297.132 33.0322C296.285 35.8968 295.862 38.3545 295.862 40.4053C295.862 41.3005 295.968 42.3096 296.18 43.4326C296.229 43.7256 296.261 43.9372 296.277 44.0674ZM288.587 31.2744C288.587 31.1605 288.571 31.0384 288.538 30.9082C288.392 30.5013 288.09 30.2979 287.635 30.2979C287.537 30.2979 287.431 30.3141 287.317 30.3467C286.862 30.4932 286.634 30.8024 286.634 31.2744C286.65 32.0394 287.057 32.6253 287.854 33.0322C288.326 32.5277 288.571 31.9417 288.587 31.2744ZM308.191 29.4922C308.761 29.5085 309.298 29.5654 309.803 29.6631C312.309 30.2002 313.847 32.1533 314.417 35.5225C314.726 35.3434 315.239 35.0098 315.955 34.5215C316.932 33.8542 317.672 33.5205 318.177 33.5205C318.421 33.5205 318.657 33.5938 318.885 33.7402C319.389 34.0658 319.642 34.5052 319.642 35.0586C319.625 35.612 319.267 36.2223 318.567 36.8896C317.575 37.8011 316.289 38.5742 314.71 39.209C314.694 41.748 314.311 43.8965 313.562 45.6543C312.342 48.5189 310.34 49.9512 307.557 49.9512C306.564 49.9512 305.571 49.6338 304.578 48.999C302.283 47.4854 301.136 44.7591 301.136 40.8203C301.136 38.444 301.535 36.2793 302.332 34.3262C303.585 31.25 305.538 29.6387 308.191 29.4922ZM311.243 39.8438C310.608 39.8275 310.006 39.7624 309.437 39.6484C307.288 39.1927 305.905 38.0534 305.286 36.2305C304.863 37.5977 304.651 39.0869 304.651 40.6982C304.651 41.4795 304.725 42.2363 304.871 42.9688C305.327 45.1986 306.32 46.3135 307.85 46.3135C308.354 46.3135 308.81 46.1589 309.217 45.8496C310.405 44.9382 311.08 42.9362 311.243 39.8438ZM310.877 36.5234C310.877 36.5234 310.991 36.5234 311.219 36.5234C310.975 34.2936 310.389 33.1706 309.461 33.1543C309.38 33.1543 309.298 33.1624 309.217 33.1787C308.859 33.3089 308.68 33.5775 308.68 33.9844C308.68 34.3424 308.737 34.6924 308.851 35.0342C309.209 36.027 309.884 36.5234 310.877 36.5234ZM320.813 47.0459C320.748 47.6318 320.577 48.1608 320.301 48.6328C319.829 49.4303 319.235 49.8291 318.519 49.8291C318.34 49.8291 318.169 49.7965 318.006 49.7314C317.192 49.3896 316.785 48.527 316.785 47.1436L318.86 31.7383C318.893 31.4453 318.942 31.1686 319.007 30.9082C319.284 29.5573 319.91 28.8818 320.887 28.8818C321.098 28.8818 321.302 28.9062 321.497 28.9551C322.197 29.1504 322.547 29.8421 322.547 31.0303C322.547 31.5023 322.522 32.0394 322.474 32.6416C322.49 32.609 322.514 32.5684 322.547 32.5195C323.768 30.3385 325.501 29.248 327.747 29.248C328.414 29.248 329.106 29.4271 329.822 29.7852C330.929 30.3548 331.629 31.1198 331.922 32.0801C333.094 30.3223 334.713 29.4352 336.78 29.4189C337.578 29.4189 338.318 29.6631 339.002 30.1514C339.995 30.8675 340.491 31.8278 340.491 33.0322C340.491 33.8135 340.483 35.0098 340.467 36.6211C340.434 38.3952 340.418 39.7542 340.418 40.6982C340.418 41.4307 340.434 42.0654 340.467 42.6025C340.662 45.1579 341.443 46.4355 342.811 46.4355C342.973 46.4355 343.144 46.4193 343.323 46.3867C343.795 46.2728 344.487 45.8903 345.398 45.2393C346.294 44.5882 347.01 44.2627 347.547 44.2627C347.758 44.2627 347.962 44.3278 348.157 44.458C348.662 44.7673 348.914 45.2474 348.914 45.8984C348.914 45.9473 348.906 46.0124 348.89 46.0938C348.776 46.875 348.1 47.6807 346.863 48.5107C345.35 49.5361 343.844 50.0488 342.347 50.0488C341.126 50.0488 340.092 49.7152 339.246 49.0479C337.505 47.6481 336.634 44.5801 336.634 39.8438C336.634 39.5671 336.642 39.1195 336.658 38.501C336.691 37.6058 336.707 36.8327 336.707 36.1816C336.707 34.4727 336.512 33.6019 336.121 33.5693C335.796 33.5693 335.413 33.8216 334.974 34.3262C333.834 35.6445 332.614 38.0778 331.312 41.626L330.896 45.8008C330.799 46.875 330.66 47.6969 330.481 48.2666C330.14 49.3734 329.489 49.9268 328.528 49.9268C328.268 49.9268 328.024 49.8698 327.796 49.7559C327.096 49.4303 326.746 48.7549 326.746 47.7295C326.746 46.7367 326.974 44.9544 327.43 42.3828C328.048 38.8509 328.357 36.4339 328.357 35.1318C328.357 34.79 328.325 34.4889 328.26 34.2285C328.13 33.6751 327.788 33.3984 327.234 33.3984C326.941 33.4147 326.616 33.5856 326.258 33.9111C325.053 35.0505 323.719 37.7035 322.254 41.8701C321.294 44.5882 320.813 46.3135 320.813 47.0459Z" fill="black"/>
</svg>
